<svg xmlns="http://www.w3.org/2000/svg" version="1.1" xmlns:xlink="http://www.w3.org/1999/xlink" width="1000" height="1000"><metadata><rdf:RDF xmlns:rdf="http://www.w3.org/1999/02/22-rdf-syntax-ns#" xmlns:dc="http://purl.org/dc/elements/1.1/"><rdf:Description><dc:creator>RealFaviconGenerator</dc:creator><dc:source>https://realfavicongenerator.net</dc:source></rdf:Description></rdf:RDF></metadata><g clip-path="url(#SvgjsClipPath1295)"><rect width="1000" height="1000" fill="#ffffff"></rect><g transform="matrix(0.7322175732217573,0,0,0.7322175732217573,150,150)"><svg xmlns="http://www.w3.org/2000/svg" viewBox="123 122 956 956" width="956" height="956"><path d="M850 575H575v-75c0 -10 -6 -19 -16 -23a24 24 0 0 0 -27 5L382 632a24 24 0 0 0 -8 18c0 7 3 13 8 17l150 150a23 23 0 0 0 17 8c3 1 6 1 10 0 10 -4 16 -14 16 -25v-75h275c7 0 13 -3 18 -7s7 -11 7 -18V600c0 -7 -3 -13 -7 -18s-11 -7 -18 -7m-25 100H550c-14 0 -25 11 -25 25v40l-89 -89 89 -89v39c0 7 3 13 7 18s11 7 18 7h275z"></path><path d="M1053 418 882 247a74 74 0 0 0 -52 -22H661l-79 -78c-14 -14 -33 -22 -52 -22H201c-41 0 -75 34 -75 75v700c0 41 34 75 75 75h225v25c0 41 34 75 75 75h500c41 0 75 -34 75 -75V471c0 -20 -8 -39 -22 -52zm-64 7h-89c-14 0 -25 -11 -25 -25v-89zM689 325h-89c-14 0 -25 -11 -25 -25v-89zm311 700H500c-14 0 -25 -11 -25 -25v-25h225c41 0 75 -34 75 -75V800c0 -14 -11 -25 -25 -25s-25 11 -25 25v100c0 7 -3 13 -7 18s-11 7 -18 7H200c-14 0 -25 -11 -25 -25V200c0 -14 11 -25 25 -25h325v125c0 41 34 75 75 75h125v125c0 14 11 25 25 25s25 -11 25 -25V370c-1 -19 -9 -37 -22 -50l-43 -43h115v122c0 41 34 75 75 75h125v525c0 7 -3 13 -7 18s-11 7 -18 7z"></path></svg></g></g><defs><clipPath id="SvgjsClipPath1295"><rect width="1000" height="1000" x="0" y="0" rx="450" ry="450"></rect></clipPath></defs></svg>